# xmcd
#
# Track frame offsets:
#   150
#   14573
#   29775
#   48804
#   70449
#   87719
#   108635
#   125150
#   141897
#   161269
#   180273
#
# Disc length: 2621 seconds
#
# Revision: 0
# Processed by: cddbd v1.5.1PL0 Copyright (c) Steve Scherf et al.
# Submitted via: Media_Universe 3.0
#
DISCID=9e0a3b0b
DTITLE=Ty Herndon - This Is Ty Herndon
DYEAR=1900
DGENRE=Country
TTITLE0=If The Road Runs Out
TTITLE1=Heathers Wall
TTITLE2=Id Move Heaven And Earth
TTITLE3=Remember When
TTITLE4=A Few Short Years
TTITLE5=Learning How To Love
TTITLE6=When Yesterday Was Mine
TTITLE7=If I Ever Fall In Love
TTITLE8=Stained Glass Windows
TTITLE9=The One You Run To
TTITLE10=Stones
EXTD=
EXTT0=
EXTT1=
EXTT2=
EXTT3=
EXTT4=
EXTT5=
EXTT6=
EXTT7=
EXTT8=
EXTT9=
EXTT10=
PLAYORDER=
